<mxfile host="app.diagrams.net" modified="2021-04-09T02:17:30.670Z" agent="5.0 (Windows NT 10.0; Win64; x64) AppleWebKit/537.36 (KHTML, like Gecko) Chrome/89.0.4389.90 Safari/537.36 OPR/75.0.3969.149" etag="IzeDYNobu_48cOqB0scV" version="14.5.8" type="github">
  <diagram id="pOUwydJKZ514wDhYMpu4" name="Page-1">
    <mxGraphModel dx="1006" dy="601" grid="1" gridSize="10" guides="1" tooltips="1" connect="1" arrows="1" fold="1" page="1" pageScale="1" pageWidth="827" pageHeight="1169" math="0" shadow="0">
      <root>
        <mxCell id="0" />
        <mxCell id="1" parent="0" />
        <mxCell id="jW0cubwcz3fPjzWmDo1d-1" value="" style="shape=folder;fontStyle=1;spacingTop=10;tabWidth=40;tabHeight=14;tabPosition=left;html=1;" parent="1" vertex="1">
          <mxGeometry x="140" y="830" width="180" height="140" as="geometry" />
        </mxCell>
        <mxCell id="jW0cubwcz3fPjzWmDo1d-3" value="&lt;Jenkins&gt;&#xa;Deploy da aplicação&#xa;" style="shape=module;align=left;spacingLeft=20;align=center;verticalAlign=top;" parent="1" vertex="1">
          <mxGeometry x="150" y="850" width="160" height="50" as="geometry" />
        </mxCell>
        <mxCell id="jW0cubwcz3fPjzWmDo1d-7" value="&lt;Maven&gt;&#xa;Dependências e deploy&#xa;da aplicação" style="shape=module;align=left;spacingLeft=20;align=center;verticalAlign=top;" parent="1" vertex="1">
          <mxGeometry x="150" y="910" width="160" height="50" as="geometry" />
        </mxCell>
        <mxCell id="ovCtJIIMCYNfRMW0sjXj-1" value="&lt;Spring Cloud Load Balance&gt;&#xa;Balanceador de carga" style="shape=module;align=left;spacingLeft=20;align=center;verticalAlign=top;" vertex="1" parent="1">
          <mxGeometry x="490" y="480" width="200" height="50" as="geometry" />
        </mxCell>
      </root>
    </mxGraphModel>
  </diagram>
</mxfile>
